# xmcd
#
# Track frame offsets: 
#        150
#        31185
#        59673
#        87475
#        123384
#        164765
#        195030
#        227434
#
# Disc length: 3469 seconds
#
# Revision: 0
# Processed by: cddbd v1.5.2PL0 Copyright (c) Steve Scherf et al.
# Submitted via: ExactAudioCopyFreeDBPlugin 1.0
#
DISCID=610d8b08
DTITLE=Calvin Russel - Contrabendo CD2
DYEAR=2010
DGENRE=Blues
TTITLE0=The More I Know
TTITLE1=Crossroad
TTITLE2=Behind The 8 Ball
TTITLE3=Last Night
TTITLE4=Soldier
TTITLE5=Ain't Leaving Your Love
TTITLE6=Rats And Roaches
TTITLE7=I Want To Change The World
EXTD=
EXTT0=
EXTT1=
EXTT2=
EXTT3=
EXTT4=
EXTT5=
EXTT6=
EXTT7=
PLAYORDER=
